# xmcd
#
# Track frame offsets:
#	150
#	19874
#	35865
#	52628
#	69771
#	85853
#	101221
#	115586
#	129497
#	143829
#	156490
#	169882
#	185460
#	202357
#
# Disc length: 2917 seconds
#
# Revision: 0
# Processed by: cddbd v1.5.2PL0 Copyright (c) Steve Scherf et al.
# Submitted via: audiograbber 1.83.01
#
DISCID=c40b630e
DTITLE=Various Artist - CDX 641
DYEAR=2016
DGENRE=Country
TTITLE0=Little Big Town - Better Man
TTITLE1=Dierks Bentley - Black
TTITLE2=Aaron Watson - Outta Style
TTITLE3=William Michael Morgan - Missing
TTITLE4=LOCASH - Ring On Every Finger
TTITLE5=Nick Tyrrel - Breathe The Air Tonight
TTITLE6=Australia's Tornadoes - Cowboy For A Night
TTITLE7=Brian Pharaoh - Fighting Another War
TTITLE8=Ben McPeak - Fix You Up
TTITLE9=Amy Jack - Game On
TTITLE10=The Hammond Brother - Let It Rain On Me
TTITLE11=Rion Paige (feat. coreNashville) - Rise
TTITLE12=Dylan Jakobsen - Silverado
TTITLE13=Charlie McCoy and Vince Hatfield - Hatfields and McCoys
EXTD=
EXTT0=
EXTT1=
EXTT2=
EXTT3=
EXTT4=
EXTT5=
EXTT6=
EXTT7=
EXTT8=
EXTT9=
EXTT10=
EXTT11=
EXTT12=
EXTT13=
PLAYORDER=
